<?xml version="1.0" encoding="UTF-8" standalone="no"?>
<svg
   xmlns:dc="http://purl.org/dc/elements/1.1/"
   xmlns:cc="http://creativecommons.org/ns#"
   xmlns:rdf="http://www.w3.org/1999/02/22-rdf-syntax-ns#"
   xmlns:svg="http://www.w3.org/2000/svg"
   xmlns="http://www.w3.org/2000/svg"
   id="svg13"
   version="1.1"
   height="134"
   width="531.0802">
  <metadata
     id="metadata17">
    <rdf:RDF>
      <cc:Work
         rdf:about="">
        <dc:format>image/svg+xml</dc:format>
        <dc:type
           rdf:resource="http://purl.org/dc/dcmitype/StillImage" />
      </cc:Work>
    </rdf:RDF>
  </metadata>
  <defs
     id="SvgjsDefs1021" />
  <g
     transform="translate(-20,-20)"
     style="fill:#ffffff"
     featurekey="root"
     id="SvgjsG1022" />
  <g
     style="fill:#000000"
     featurekey="container1"
     id="SvgjsG1023">
    <path
       style="fill-rule:nonzero"
       id="path4"
       d="M 0,0 H 130 V 134 H 0 v 0 z M 6,6 V 128 H 124 V 6 6 Z" />
  </g>
  <g
     style="fill:#000000"
     transform="matrix(0.89143271,0,0,0.89143271,29.965366,30)"
     featurekey="symbol1"
     id="SvgjsG1024">
    <path
       id="path7"
       d="M 74.8,21.5 49.6,2 C 48,0.8 45.7,0 43.4,0 42.1,0 40.9,0.2 39.9,0.6 L 10.4,12.7 c -3,1.2 -5.5,4.5 -6,7.7 L 0.1,52.1 c -0.4,3.2 1.2,7.1 3.7,9 L 29,80.7 c 1.6,1.2 3.9,2 6.2,2 1.3,0 2.5,-0.2 3.5,-0.6 L 68.2,70 c 3,-1.2 5.5,-4.5 6,-7.7 l 4.3,-31.6 c 0.4,-3.3 -1.1,-7.2 -3.7,-9.2 z M 47,28.9 43.8,52.3 25.2,37.8 44,30.1 Z M 12.5,18 42,5.9 c 0.3,-0.1 0.8,-0.2 1.3,-0.2 1,0 2.1,0.3 2.7,0.8 L 49.7,9.4 48,22.4 7.6,38.9 10,21.2 C 10.2,20 11.4,18.4 12.5,18 Z m 24,58.7 c -0.3,0.1 -0.8,0.2 -1.3,0.2 -1,0 -2.1,-0.3 -2.7,-0.8 L 7.2,56.6 C 6.3,55.9 5.5,54 5.6,52.8 l 1,-7.5 12.3,-5 25,19.4 11.7,9.1 z M 72.9,29.8 68.6,61.4 c -0.2,1.2 -1.4,2.8 -2.5,3.2 L 61.8,66.3 49.3,56.5 55,13.3 71.3,26 c 1,0.7 1.8,2.6 1.6,3.8 z" />
  </g>
  <g
     style="fill:#72c02c"
     transform="matrix(3.3222589,0,0,3.3222589,148.2231,15.405319)"
     featurekey="text1"
     id="SvgjsG1025">
    <path
       id="path10"
       d="m 0.54,16.34 3.3,-0.68 c 0.02,1.4 1.1,1.84 2.2,1.84 1.04,0 1.64,-0.38 1.64,-1 C 7.68,14.4 0.9,15.36 0.9,10.56 0.9,7.92 2.94,6.5 6,6.5 c 3.08,0 5.02,1.46 4.92,3.58 l -3.3,0.68 C 7.6,10.22 7.48,9.28 5.92,9.28 4.84,9.28 4.3,9.72 4.3,10.32 c 0,2.18 6.78,1.04 6.78,5.82 0,2.4 -1.7,4.14 -5.08,4.14 -3.6,0 -5.58,-1.96 -5.46,-3.94 z M 12.16,13 v -2.34 h 1.18 L 13.52,8.1 h 2.9 v 2.56 h 2.56 V 13 h -2.56 v 3.96 c 0,0.46 0.14,0.74 0.54,0.74 0.5,0 0.6,-0.56 0.64,-1.12 l 2.28,0.8 c -0.4,1.58 -1.02,2.82 -3.3,2.82 -2.48,0 -3.28,-1.58 -3.28,-3.24 V 13 Z m 17.3,7.1 c -2.14,0.34 -2.98,-0.52 -3.24,-1.22 -0.48,0.68 -1.2,1.4 -2.66,1.4 -1.7,0 -3.16,-0.96 -3.16,-2.74 0,-2.16 2.14,-3.14 5.4,-3.16 V 14.1 c 0,-1.06 -0.26,-1.44 -1.02,-1.44 -0.72,0 -1.06,0.34 -0.96,1.24 l -3.1,-0.58 c -0.2,-1.62 1.24,-2.94 4.28,-2.94 2.86,0 3.92,1.18 3.92,3.76 v 2.2 c 0,1.02 0.04,1.54 1.1,1.3 z M 25.8,16.88 v -0.74 c -1.22,0.02 -2.26,0.24 -2.26,1.16 0,0.52 0.34,0.76 0.86,0.76 0.6,0 1.32,-0.32 1.4,-1.18 z M 30.66,13 v -2.34 h 1.18 L 32.02,8.1 h 2.9 v 2.56 h 2.56 V 13 h -2.56 v 3.96 c 0,0.46 0.14,0.74 0.54,0.74 0.5,0 0.6,-0.56 0.64,-1.12 l 2.28,0.8 c -0.4,1.58 -1.02,2.82 -3.3,2.82 -2.48,0 -3.28,-1.58 -3.28,-3.24 V 13 Z m 8.24,4.5 2.94,-0.46 c -0.08,0.48 0.28,0.92 1.26,0.92 0.58,0 1.04,-0.18 1.04,-0.56 0,-1.2 -5.04,-0.48 -5.04,-4 0,-1.82 1.34,-3.02 3.98,-3.02 2.4,0 4.28,0.98 3.96,2.72 l -3.12,0.54 c 0.12,-0.44 -0.14,-0.94 -0.88,-0.94 -0.6,0 -0.78,0.3 -0.78,0.56 0,1.4 5.08,0.5 5.08,3.96 0,2.14 -1.92,3.06 -4.36,3.06 -2.32,0 -4.28,-0.88 -4.08,-2.78 z M 49.24,20 V 6.78 H 52.6 V 20 Z M 55,20 v -9.34 h 2.9 v 1.48 c 0.24,-0.56 1.02,-1.76 3.1,-1.76 1.38,0 2.98,0.56 2.98,3.48 V 20 h -3.12 v -5.34 c 0,-1.1 -0.26,-1.64 -0.9,-1.64 -1.12,0 -1.68,1.56 -1.84,2.16 V 20 Z m 10.5,-3.66 3.3,-0.68 c 0.02,1.4 1.1,1.84 2.2,1.84 1.04,0 1.64,-0.38 1.64,-1 0,-2.1 -6.78,-1.14 -6.78,-5.94 0,-2.64 2.04,-4.06 5.1,-4.06 3.08,0 5.02,1.46 4.92,3.58 l -3.3,0.68 c -0.02,-0.54 -0.14,-1.48 -1.7,-1.48 -1.08,0 -1.62,0.44 -1.62,1.04 0,2.18 6.78,1.04 6.78,5.82 0,2.4 -1.7,4.14 -5.08,4.14 -3.6,0 -5.58,-1.96 -5.46,-3.94 z m 12.26,8.22 v -13.9 h 2.9 v 0.88 c 0.58,-0.76 1.42,-1.16 2.64,-1.16 3.06,0 4.02,2.52 4.02,4.82 0,2.86 -1.5,5.08 -4.48,5.08 -0.96,0 -1.48,-0.3 -1.96,-0.68 v 4.96 z m 4.72,-6.6 c 0.64,0 1.6,-0.26 1.6,-2.68 0,-1.92 -0.6,-2.58 -1.56,-2.58 -1.06,0 -1.64,0.8 -1.64,2.7 0,1.7 0.46,2.56 1.6,2.56 z m 10.96,2.32 c -3.78,0 -4.92,-2.34 -4.92,-5.02 0,-2.62 1.08,-4.88 4.86,-4.88 3.86,0 4.88,2.34 4.88,4.92 0,2.74 -1.14,4.98 -4.82,4.98 z M 93.4,17.96 c 1.36,0 1.62,-1.26 1.62,-2.62 0,-1.36 -0.26,-2.64 -1.64,-2.64 -1.36,0 -1.62,1.28 -1.62,2.6 0,1.34 0.26,2.66 1.64,2.66 z M 99.92,20 v -9.34 h 2.9 v 1.6 c 0.44,-1 1.22,-1.88 2.48,-1.88 1.48,0 1.94,0.98 1.94,0.98 l -1.86,2.68 c 0,0 -0.24,-0.66 -0.92,-0.66 -0.72,0 -1.1,0.94 -1.42,1.92 V 20 Z m 7.6,-7 v -2.34 h 1.18 l 0.18,-2.56 h 2.9 v 2.56 h 2.56 V 13 h -2.56 v 3.96 c 0,0.46 0.14,0.74 0.54,0.74 0.5,0 0.6,-0.56 0.64,-1.12 l 2.28,0.8 c -0.4,1.58 -1.02,2.82 -3.3,2.82 -2.48,0 -3.28,-1.58 -3.28,-3.24 V 13 Z" />
  </g>
</svg>
